# Blender 3.3.1
# www.blender.org
o sphere
v 0.000000 -0.000000 1.000000
v 0.102900 -0.000000 0.994692
v 0.100638 0.021458 0.994692
v 0.208535 -0.000000 0.978015
v 0.203951 0.043487 0.978015
v 0.315104 -0.000000 0.949057
v 0.308176 0.065710 0.949057
v 0.420520 -0.000000 0.907283
v 0.411275 0.087693 0.907283
v 0.522517 -0.000000 0.852629
v 0.511030 0.108963 0.852629
v 0.618780 -0.000000 0.785564
v 0.605176 0.129037 0.785564
v 0.707107 -0.000000 0.707107
v 0.691561 0.147457 0.707107
v 0.785564 -0.000000 0.618780
v 0.768293 0.163818 0.618780
v 0.852629 -0.000000 0.522517
v 0.833884 0.177803 0.522517
v 0.907283 -0.000000 0.420520
v 0.887336 0.189200 0.420520
v 0.949057 -0.000000 0.315104
v 0.928192 0.197912 0.315104
v 0.978015 -0.000000 0.208535
v 0.956513 0.203951 0.208535
v 0.994692 -0.000000 0.102900
v 0.972823 0.207428 0.102900
v 1.000000 0.000000 0.000000
v 0.978015 0.208535 0.000000
v 0.994692 0.000000 -0.102900
v 0.972823 0.207428 -0.102900
v 0.978015 0.000000 -0.208535
v 0.956513 0.203951 -0.208535
v 0.949057 0.000000 -0.315104
v 0.928192 0.197912 -0.315104
v 0.907283 0.000000 -0.420520
v 0.887336 0.189200 -0.420520
v 0.852629 0.000000 -0.522517
v 0.833884 0.177803 -0.522517
v 0.785564 0.000000 -0.618780
v 0.768293 0.163818 -0.618780
v 0.707107 0.000000 -0.707107
v 0.691561 0.147457 -0.707107
v 0.618780 0.000000 -0.785564
v 0.605176 0.129037 -0.785564
v 0.522517 0.000000 -0.852629
v 0.511029 0.108963 -0.852629
v 0.420520 0.000000 -0.907283
v 0.411275 0.087693 -0.907283
v 0.315103 0.000000 -0.949057
v 0.308176 0.065710 -0.949057
v 0.208535 0.000000 -0.978015
v 0.203950 0.043487 -0.978015
v 0.102900 0.000000 -0.994692
v 0.100638 0.021458 -0.994692
v 0.000000 0.000000 -1.000000
v 0.093359 0.043271 0.994692
v 0.189200 0.087693 0.978015
v 0.285888 0.132507 0.949057
v 0.381531 0.176837 0.907283
v 0.474071 0.219729 0.852629
v 0.561409 0.260210 0.785564
v 0.641546 0.297353 0.707107
v 0.712729 0.330345 0.618780
v 0.773576 0.358548 0.522517
v 0.823163 0.381531 0.420520
v 0.861064 0.399098 0.315104
v 0.887336 0.411275 0.208535
v 0.902467 0.418288 0.102900
v 0.907283 0.420520 0.000000
v 0.902467 0.418288 -0.102900
v 0.887336 0.411275 -0.208535
v 0.861064 0.399098 -0.315104
v 0.823163 0.381531 -0.420520
v 0.773576 0.358548 -0.522517
v 0.712729 0.330345 -0.618780
v 0.641546 0.297353 -0.707107
v 0.561409 0.260210 -0.785564
v 0.474071 0.219729 -0.852629
v 0.381531 0.176837 -0.907283
v 0.285888 0.132507 -0.949057
v 0.189200 0.087693 -0.978015
v 0.093359 0.043271 -0.994692
v 0.080834 0.063672 0.994692
v 0.163818 0.129037 0.978015
v 0.247534 0.194980 0.949057
v 0.330345 0.260210 0.907283
v 0.410471 0.323323 0.852629
v 0.486092 0.382889 0.785564
v 0.555478 0.437544 0.707107
v 0.617111 0.486092 0.618780
v 0.669794 0.527590 0.522517
v 0.712729 0.561409 0.420520
v 0.745545 0.587258 0.315104
v 0.768293 0.605177 0.208535
v 0.781394 0.615496 0.102900
v 0.785564 0.618780 0.000000
v 0.781394 0.615496 -0.102900
v 0.768293 0.605176 -0.208535
v 0.745545 0.587258 -0.315104
v 0.712729 0.561409 -0.420520
v 0.669794 0.527590 -0.522517
v 0.617111 0.486092 -0.618780
v 0.555478 0.437544 -0.707107
v 0.486092 0.382889 -0.785564
v 0.410471 0.323323 -0.852629
v 0.330345 0.260210 -0.907283
v 0.247534 0.194980 -0.949057
v 0.163818 0.129037 -0.978015
v 0.080834 0.063672 -0.994692
v 0.063672 0.080834 0.994692
v 0.129037 0.163818 0.978015
v 0.194980 0.247534 0.949057
v 0.260210 0.330345 0.907283
v 0.323323 0.410471 0.852629
v 0.382889 0.486092 0.785564
v 0.437544 0.555478 0.707107
v 0.486092 0.617111 0.618780
v 0.527590 0.669794 0.522517
v 0.561409 0.712729 0.420520
v 0.587258 0.745545 0.315104
v 0.605176 0.768293 0.208535
v 0.615496 0.781394 0.102900
v 0.618780 0.785564 0.000000
v 0.615496 0.781394 -0.102900
v 0.605176 0.768293 -0.208535
v 0.587258 0.745545 -0.315104
v 0.561409 0.712729 -0.420520
v 0.527590 0.669794 -0.522517
v 0.486092 0.617111 -0.618780
v 0.437544 0.555478 -0.707107
v 0.382889 0.486092 -0.785564
v 0.323323 0.410471 -0.852629
v 0.260210 0.330345 -0.907283
v 0.194980 0.247534 -0.949057
v 0.129037 0.163818 -0.978015
v 0.063672 0.080834 -0.994692
v 0.043271 0.093359 0.994692
v 0.087693 0.189200 0.978015
v 0.132507 0.285888 0.949057
v 0.176837 0.381531 0.907283
v 0.219729 0.474071 0.852629
v 0.260210 0.561409 0.785564
v 0.297353 0.641546 0.707107
v 0.330345 0.712729 0.618780
v 0.358548 0.773576 0.522517
v 0.381531 0.823163 0.420520
v 0.399098 0.861064 0.315104
v 0.411275 0.887337 0.208535
v 0.418288 0.902467 0.102900
v 0.420520 0.907283 0.000000
v 0.418288 0.902467 -0.102900
v 0.411275 0.887336 -0.208535
v 0.399098 0.861064 -0.315104
v 0.381531 0.823163 -0.420520
v 0.358548 0.773576 -0.522517
v 0.330345 0.712729 -0.618780
v 0.297353 0.641546 -0.707107
v 0.260210 0.561409 -0.785564
v 0.219729 0.474071 -0.852629
v 0.176837 0.381531 -0.907283
v 0.132507 0.285888 -0.949057
v 0.087693 0.189200 -0.978015
v 0.043271 0.093359 -0.994692
v 0.021458 0.100638 0.994692
v 0.043487 0.203951 0.978015
v 0.065710 0.308176 0.949057
v 0.087693 0.411275 0.907283
v 0.108963 0.511030 0.852629
v 0.129037 0.605177 0.785564
v 0.147457 0.691561 0.707107
v 0.163818 0.768293 0.618780
v 0.177803 0.833884 0.522517
v 0.189200 0.887336 0.420520
v 0.197912 0.928192 0.315104
v 0.203950 0.956513 0.208535
v 0.207428 0.972823 0.102900
v 0.208535 0.978015 0.000000
v 0.207428 0.972823 -0.102900
v 0.203950 0.956513 -0.208535
v 0.197912 0.928192 -0.315104
v 0.189200 0.887336 -0.420520
v 0.177803 0.833884 -0.522517
v 0.163818 0.768293 -0.618780
v 0.147457 0.691561 -0.707107
v 0.129037 0.605177 -0.785564
v 0.108963 0.511029 -0.852629
v 0.087693 0.411275 -0.907283
v 0.065710 0.308176 -0.949057
v 0.043487 0.203950 -0.978015
v 0.021458 0.100638 -0.994692
v 0.000000 0.102900 0.994692
v 0.000000 0.208535 0.978015
v 0.000000 0.315104 0.949057
v 0.000000 0.420520 0.907283
v 0.000000 0.522517 0.852629
v 0.000000 0.618780 0.785564
v 0.000000 0.707107 0.707107
v 0.000000 0.785564 0.618780
v 0.000000 0.852629 0.522517
v 0.000000 0.907283 0.420520
v 0.000000 0.949057 0.315104
v 0.000000 0.978015 0.208535
v 0.000000 0.994692 0.102900
v 0.000000 1.000000 0.000000
v 0.000000 0.994692 -0.102900
v 0.000000 0.978015 -0.208535
v 0.000000 0.949057 -0.315104
v 0.000000 0.907283 -0.420520
v 0.000000 0.852629 -0.522517
v 0.000000 0.785564 -0.618780
v 0.000000 0.707107 -0.707107
v 0.000000 0.618780 -0.785564
v 0.000000 0.522517 -0.852629
v 0.000000 0.420520 -0.907283
v 0.000000 0.315103 -0.949057
v 0.000000 0.208535 -0.978015
v 0.000000 0.102900 -0.994692
v -0.021458 0.100638 0.994692
v -0.043487 0.203951 0.978015
v -0.065710 0.308176 0.949057
v -0.087693 0.411275 0.907283
v -0.108963 0.511030 0.852629
v -0.129038 0.605176 0.785564
v -0.147457 0.691561 0.707107
v -0.163818 0.768293 0.618780
v -0.177803 0.833884 0.522517
v -0.189201 0.887336 0.420520
v -0.197912 0.928192 0.315104
v -0.203951 0.956513 0.208535
v -0.207428 0.972823 0.102900
v -0.208535 0.978015 0.000000
v -0.207428 0.972823 -0.102900
v -0.203951 0.956513 -0.208535
v -0.197912 0.928192 -0.315104
v -0.189201 0.887336 -0.420520
v -0.177803 0.833883 -0.522517
v -0.163818 0.768293 -0.618780
v -0.147457 0.691561 -0.707107
v -0.129038 0.605176 -0.785564
v -0.108963 0.511029 -0.852629
v -0.087693 0.411275 -0.907283
v -0.065710 0.308176 -0.949057
v -0.043487 0.203950 -0.978015
v -0.021458 0.100638 -0.994692
v -0.043271 0.093359 0.994692
v -0.087693 0.189200 0.978015
v -0.132507 0.285888 0.949057
v -0.176837 0.381531 0.907283
v -0.219729 0.474071 0.852629
v -0.260210 0.561409 0.785564
v -0.297353 0.641546 0.707107
v -0.330345 0.712729 0.618780
v -0.358548 0.773576 0.522517
v -0.381531 0.823163 0.420520
v -0.399098 0.861064 0.315104
v -0.411275 0.887337 0.208535
v -0.418288 0.902467 0.102900
v -0.420520 0.907283 0.000000
v -0.418288 0.902467 -0.102900
v -0.411275 0.887336 -0.208535
v -0.399098 0.861064 -0.315104
v -0.381531 0.823163 -0.420520
v -0.358548 0.773576 -0.522517
v -0.330345 0.712729 -0.618780
v -0.297353 0.641546 -0.707107
v -0.260210 0.561409 -0.785564
v -0.219729 0.474071 -0.852629
v -0.176837 0.381531 -0.907283
v -0.132507 0.285888 -0.949057
v -0.087693 0.189200 -0.978015
v -0.043271 0.093359 -0.994692
v -0.063672 0.080834 0.994692
v -0.129037 0.163818 0.978015
v -0.194980 0.247534 0.949057
v -0.260210 0.330345 0.907283
v -0.323323 0.410471 0.852629
v -0.382889 0.486092 0.785564
v -0.437544 0.555478 0.707107
v -0.486092 0.617111 0.618780
v -0.527590 0.669794 0.522517
v -0.561409 0.712729 0.420520
v -0.587258 0.745545 0.315104
v -0.605177 0.768293 0.208535
v -0.615496 0.781394 0.102900
v -0.618780 0.785564 0.000000
v -0.615496 0.781394 -0.102900
v -0.605176 0.768293 -0.208535
v -0.587258 0.745545 -0.315104
v -0.561409 0.712729 -0.420520
v -0.527590 0.669794 -0.522517
v -0.486092 0.617111 -0.618780
v -0.437544 0.555478 -0.707107
v -0.382889 0.486092 -0.785564
v -0.323323 0.410471 -0.852629
v -0.260210 0.330345 -0.907283
v -0.194980 0.247534 -0.949057
v -0.129037 0.163818 -0.978015
v -0.063672 0.080834 -0.994692
v -0.080834 0.063672 0.994692
v -0.163818 0.129037 0.978015
v -0.247534 0.194980 0.949057
v -0.330345 0.260210 0.907283
v -0.410471 0.323323 0.852629
v -0.486092 0.382889 0.785564
v -0.555478 0.437544 0.707107
v -0.617111 0.486092 0.618780
v -0.669794 0.527590 0.522517
v -0.712729 0.561409 0.420520
v -0.745545 0.587258 0.315104
v -0.768293 0.605177 0.208535
v -0.781394 0.615496 0.102900
v -0.785564 0.618780 0.000000
v -0.781394 0.615496 -0.102900
v -0.768293 0.605176 -0.208535
v -0.745545 0.587258 -0.315104
v -0.712729 0.561409 -0.420520
v -0.669794 0.527590 -0.522517
v -0.617111 0.486092 -0.618780
v -0.555478 0.437544 -0.707107
v -0.486092 0.382889 -0.785564
v -0.410471 0.323323 -0.852629
v -0.330345 0.260210 -0.907283
v -0.247534 0.194980 -0.949057
v -0.163818 0.129037 -0.978015
v -0.080834 0.063672 -0.994692
v -0.093359 0.043271 0.994692
v -0.189200 0.087693 0.978015
v -0.285888 0.132507 0.949057
v -0.381531 0.176837 0.907283
v -0.474071 0.219729 0.852629
v -0.561409 0.260210 0.785564
v -0.641546 0.297353 0.707107
v -0.712729 0.330345 0.618780
v -0.773576 0.358548 0.522517
v -0.823163 0.381531 0.420520
v -0.861064 0.399098 0.315104
v -0.887337 0.411275 0.208535
v -0.902467 0.418288 0.102900
v -0.907283 0.420520 0.000000
v -0.902467 0.418288 -0.102900
v -0.887336 0.411275 -0.208535
v -0.861064 0.399098 -0.315104
v -0.823163 0.381531 -0.420520
v -0.773576 0.358548 -0.522517
v -0.712729 0.330345 -0.618780
v -0.641546 0.297353 -0.707107
v -0.561409 0.260210 -0.785564
v -0.474071 0.219729 -0.852629
v -0.381531 0.176837 -0.907283
v -0.285888 0.132507 -0.949057
v -0.189200 0.087693 -0.978015
v -0.093359 0.043271 -0.994692
v -0.100638 0.021458 0.994692
v -0.203951 0.043487 0.978015
v -0.308176 0.065710 0.949057
v -0.411275 0.087693 0.907283
v -0.511030 0.108963 0.852629
v -0.605177 0.129037 0.785564
v -0.691561 0.147457 0.707107
v -0.768293 0.163818 0.618780
v -0.833884 0.177803 0.522517
v -0.887336 0.189200 0.420520
v -0.928192 0.197912 0.315104
v -0.956513 0.203950 0.208535
v -0.972823 0.207428 0.102900
v -0.978015 0.208535 0.000000
v -0.972823 0.207428 -0.102900
v -0.956513 0.203950 -0.208535
v -0.928192 0.197912 -0.315104
v -0.887336 0.189200 -0.420520
v -0.833884 0.177803 -0.522517
v -0.768293 0.163818 -0.618780
v -0.691561 0.147457 -0.707107
v -0.605177 0.129037 -0.785564
v -0.511029 0.108963 -0.852629
v -0.411275 0.087693 -0.907283
v -0.308176 0.065710 -0.949057
v -0.203950 0.043487 -0.978015
v -0.100638 0.021458 -0.994692
v -0.102900 -0.000000 0.994692
v -0.208535 -0.000000 0.978015
v -0.315104 -0.000000 0.949057
v -0.420520 -0.000000 0.907283
v -0.522517 -0.000000 0.852629
v -0.618780 -0.000000 0.785564
v -0.707107 -0.000000 0.707107
v -0.785564 -0.000000 0.618780
v -0.852629 -0.000000 0.522517
v -0.907283 -0.000000 0.420520
v -0.949057 -0.000000 0.315104
v -0.978015 -0.000000 0.208535
v -0.994692 -0.000000 0.102900
v -1.000000 0.000000 0.000000
v -0.994692 0.000000 -0.102900
v -0.978015 0.000000 -0.208535
v -0.949057 0.000000 -0.315104
v -0.907283 0.000000 -0.420520
v -0.852629 0.000000 -0.522517
v -0.785564 0.000000 -0.618780
v -0.707107 0.000000 -0.707107
v -0.618780 0.000000 -0.785564
v -0.522517 0.000000 -0.852629
v -0.420520 0.000000 -0.907283
v -0.315103 0.000000 -0.949057
v -0.208535 0.000000 -0.978015
v -0.102900 0.000000 -0.994692
v -0.100638 -0.021458 0.994692
v -0.203951 -0.043487 0.978015
v -0.308176 -0.065710 0.949057
v -0.411275 -0.087693 0.907283
v -0.511030 -0.108963 0.852629
v -0.605177 -0.129037 0.785564
v -0.691561 -0.147457 0.707107
v -0.768293 -0.163818 0.618780
v -0.833884 -0.177803 0.522517
v -0.887336 -0.189200 0.420520
v -0.928192 -0.197912 0.315104
v -0.956513 -0.203950 0.208535
v -0.972823 -0.207428 0.102900
v -0.978015 -0.208535 -0.000000
v -0.972823 -0.207428 -0.102900
v -0.956513 -0.203950 -0.208535
v -0.928192 -0.197912 -0.315104
v -0.887336 -0.189200 -0.420520
v -0.833884 -0.177803 -0.522517
v -0.768293 -0.163818 -0.618780
v -0.691561 -0.147457 -0.707107
v -0.605177 -0.129037 -0.785564
v -0.511029 -0.108963 -0.852629
v -0.411275 -0.087693 -0.907283
v -0.308176 -0.065710 -0.949057
v -0.203950 -0.043487 -0.978015
v -0.100638 -0.021458 -0.994692
v -0.093359 -0.043271 0.994692
v -0.189200 -0.087693 0.978015
v -0.285888 -0.132507 0.949057
v -0.381531 -0.176837 0.907283
v -0.474071 -0.219729 0.852629
v -0.561409 -0.260210 0.785564
v -0.641546 -0.297353 0.707107
v -0.712729 -0.330346 0.618780
v -0.773576 -0.358548 0.522517
v -0.823163 -0.381531 0.420520
v -0.861064 -0.399098 0.315104
v -0.887336 -0.411275 0.208535
v -0.902467 -0.418288 0.102900
v -0.907283 -0.420520 -0.000000
v -0.902467 -0.418288 -0.102900
v -0.887336 -0.411275 -0.208535
v -0.861064 -0.399098 -0.315104
v -0.823163 -0.381531 -0.420520
v -0.773576 -0.358548 -0.522517
v -0.712729 -0.330346 -0.618780
v -0.641546 -0.297353 -0.707107
v -0.561409 -0.260210 -0.785564
v -0.474071 -0.219729 -0.852629
v -0.381531 -0.176837 -0.907283
v -0.285888 -0.132507 -0.949057
v -0.189200 -0.087693 -0.978015
v -0.093359 -0.043271 -0.994692
v -0.080834 -0.063672 0.994692
v -0.163818 -0.129037 0.978015
v -0.247534 -0.194980 0.949057
v -0.330345 -0.260210 0.907283
v -0.410471 -0.323323 0.852629
v -0.486092 -0.382889 0.785564
v -0.555478 -0.437544 0.707107
v -0.617111 -0.486092 0.618780
v -0.669794 -0.527590 0.522517
v -0.712729 -0.561409 0.420520
v -0.745545 -0.587258 0.315104
v -0.768293 -0.605177 0.208535
v -0.781394 -0.615496 0.102900
v -0.785564 -0.618780 -0.000000
v -0.781394 -0.615496 -0.102900
v -0.768293 -0.605176 -0.208535
v -0.745545 -0.587258 -0.315104
v -0.712729 -0.561409 -0.420520
v -0.669794 -0.527590 -0.522517
v -0.617111 -0.486092 -0.618780
v -0.555478 -0.437544 -0.707107
v -0.486092 -0.382889 -0.785564
v -0.410471 -0.323323 -0.852629
v -0.330345 -0.260210 -0.907283
v -0.247534 -0.194980 -0.949057
v -0.163818 -0.129037 -0.978015
v -0.080834 -0.063672 -0.994692
v -0.063672 -0.080834 0.994692
v -0.129037 -0.163818 0.978015
v -0.194980 -0.247534 0.949057
v -0.260210 -0.330345 0.907283
v -0.323323 -0.410471 0.852629
v -0.382889 -0.486092 0.785564
v -0.437544 -0.555478 0.707107
v -0.486092 -0.617111 0.618780
v -0.527590 -0.669794 0.522517
v -0.561409 -0.712729 0.420520
v -0.587258 -0.745545 0.315104
v -0.605177 -0.768293 0.208535
v -0.615496 -0.781394 0.102900
v -0.618780 -0.785564 -0.000000
v -0.615496 -0.781394 -0.102900
v -0.605176 -0.768293 -0.208535
v -0.587258 -0.745545 -0.315104
v -0.561409 -0.712729 -0.420520
v -0.527590 -0.669794 -0.522517
v -0.486092 -0.617111 -0.618780
v -0.437544 -0.555478 -0.707107
v -0.382889 -0.486092 -0.785564
v -0.323323 -0.410471 -0.852629
v -0.260210 -0.330345 -0.907283
v -0.194980 -0.247534 -0.949057
v -0.129037 -0.163818 -0.978015
v -0.063672 -0.080834 -0.994692
v -0.043271 -0.093359 0.994692
v -0.087693 -0.189200 0.978015
v -0.132507 -0.285888 0.949057
v -0.176837 -0.381531 0.907283
v -0.219729 -0.474071 0.852629
v -0.260210 -0.561409 0.785564
v -0.297352 -0.641546 0.707107
v -0.330345 -0.712729 0.618780
v -0.358547 -0.773576 0.522517
v -0.381531 -0.823163 0.420520
v -0.399098 -0.861064 0.315104
v -0.411275 -0.887336 0.208535
v -0.418288 -0.902467 0.102900
v -0.420520 -0.907283 -0.000000
v -0.418288 -0.902467 -0.102900
v -0.411275 -0.887336 -0.208535
v -0.399097 -0.861064 -0.315104
v -0.381531 -0.823163 -0.420520
v -0.358547 -0.773576 -0.522517
v -0.330345 -0.712729 -0.618780
v -0.297352 -0.641546 -0.707107
v -0.260210 -0.561409 -0.785564
v -0.219729 -0.474071 -0.852629
v -0.176837 -0.381531 -0.907283
v -0.132507 -0.285888 -0.949057
v -0.087693 -0.189200 -0.978015
v -0.043271 -0.093359 -0.994692
v -0.021458 -0.100638 0.994692
v -0.043487 -0.203951 0.978015
v -0.065710 -0.308176 0.949057
v -0.087693 -0.411275 0.907283
v -0.108963 -0.511030 0.852629
v -0.129037 -0.605177 0.785564
v -0.147457 -0.691561 0.707107
v -0.163818 -0.768293 0.618780
v -0.177803 -0.833884 0.522517
v -0.189200 -0.887336 0.420520
v -0.197912 -0.928192 0.315104
v -0.203950 -0.956513 0.208535
v -0.207428 -0.972823 0.102900
v -0.208535 -0.978015 -0.000000
v -0.207428 -0.972823 -0.102900
v -0.203950 -0.956513 -0.208535
v -0.197912 -0.928192 -0.315104
v -0.189200 -0.887336 -0.420520
v -0.177803 -0.833884 -0.522517
v -0.163818 -0.768293 -0.618780
v -0.147457 -0.691561 -0.707107
v -0.129037 -0.605177 -0.785564
v -0.108963 -0.511029 -0.852629
v -0.087693 -0.411275 -0.907283
v -0.065710 -0.308176 -0.949057
v -0.043487 -0.203950 -0.978015
v -0.021458 -0.100638 -0.994692
v 0.000000 -0.102900 0.994692
v 0.000000 -0.208535 0.978015
v 0.000000 -0.315104 0.949057
v 0.000000 -0.420520 0.907283
v 0.000000 -0.522517 0.852629
v 0.000000 -0.618780 0.785564
v 0.000000 -0.707107 0.707107
v 0.000000 -0.785564 0.618780
v 0.000000 -0.852629 0.522517
v 0.000000 -0.907283 0.420520
v 0.000000 -0.949057 0.315104
v 0.000000 -0.978015 0.208535
v 0.000000 -0.994692 0.102900
v 0.000000 -1.000000 -0.000000
v 0.000000 -0.994692 -0.102900
v 0.000000 -0.978015 -0.208535
v 0.000000 -0.949057 -0.315104
v 0.000000 -0.907283 -0.420520
v 0.000000 -0.852629 -0.522517
v 0.000000 -0.785564 -0.618780
v 0.000000 -0.707107 -0.707107
v 0.000000 -0.618780 -0.785564
v 0.000000 -0.522517 -0.852629
v 0.000000 -0.420520 -0.907283
v 0.000000 -0.315103 -0.949057
v 0.000000 -0.208535 -0.978015
v 0.000000 -0.102900 -0.994692
v 0.021458 -0.100638 0.994692
v 0.043487 -0.203951 0.978015
v 0.065710 -0.308176 0.949057
v 0.087693 -0.411275 0.907283
v 0.108963 -0.511030 0.852629
v 0.129037 -0.605177 0.785564
v 0.147457 -0.691561 0.707107
v 0.163818 -0.768293 0.618780
v 0.177803 -0.833884 0.522517
v 0.189200 -0.887336 0.420520
v 0.197912 -0.928192 0.315104
v 0.203950 -0.956513 0.208535
v 0.207428 -0.972823 0.102900
v 0.208535 -0.978015 -0.000000
v 0.207428 -0.972823 -0.102900
v 0.203950 -0.956513 -0.208535
v 0.197912 -0.928192 -0.315104
v 0.189200 -0.887336 -0.420520
v 0.177803 -0.833884 -0.522517
v 0.163818 -0.768293 -0.618780
v 0.147457 -0.691561 -0.707107
v 0.129037 -0.605177 -0.785564
v 0.108963 -0.511029 -0.852629
v 0.087693 -0.411275 -0.907283
v 0.065710 -0.308176 -0.949057
v 0.043487 -0.203950 -0.978015
v 0.021458 -0.100638 -0.994692
v 0.043271 -0.093359 0.994692
v 0.087693 -0.189200 0.978015
v 0.132507 -0.285888 0.949057
v 0.176837 -0.381531 0.907283
v 0.219729 -0.474071 0.852629
v 0.260210 -0.561409 0.785564
v 0.297353 -0.641546 0.707107
v 0.330346 -0.712729 0.618780
v 0.358548 -0.773576 0.522517
v 0.381531 -0.823163 0.420520
v 0.399098 -0.861064 0.315104
v 0.411275 -0.887336 0.208535
v 0.418288 -0.902467 0.102900
v 0.420520 -0.907283 -0.000000
v 0.418288 -0.902467 -0.102900
v 0.411275 -0.887336 -0.208535
v 0.399098 -0.861064 -0.315104
v 0.381531 -0.823163 -0.420520
v 0.358548 -0.773576 -0.522517
v 0.330346 -0.712729 -0.618780
v 0.297353 -0.641546 -0.707107
v 0.260210 -0.561409 -0.785564
v 0.219729 -0.474071 -0.852629
v 0.176837 -0.381531 -0.907283
v 0.132507 -0.285888 -0.949057
v 0.087693 -0.189200 -0.978015
v 0.043271 -0.093359 -0.994692
v 0.063672 -0.080834 0.994692
v 0.129037 -0.163818 0.978015
v 0.194980 -0.247534 0.949057
v 0.260210 -0.330345 0.907283
v 0.323323 -0.410471 0.852629
v 0.382889 -0.486092 0.785564
v 0.437544 -0.555478 0.707107
v 0.486092 -0.617111 0.618780
v 0.527590 -0.669794 0.522517
v 0.561409 -0.712729 0.420520
v 0.587258 -0.745545 0.315104
v 0.605177 -0.768293 0.208535
v 0.615496 -0.781394 0.102900
v 0.618780 -0.785564 -0.000000
v 0.615496 -0.781394 -0.102900
v 0.605176 -0.768293 -0.208535
v 0.587258 -0.745545 -0.315104
v 0.561409 -0.712729 -0.420520
v 0.527590 -0.669794 -0.522517
v 0.486092 -0.617111 -0.618780
v 0.437544 -0.555478 -0.707107
v 0.382889 -0.486092 -0.785564
v 0.323323 -0.410471 -0.852629
v 0.260210 -0.330345 -0.907283
v 0.194980 -0.247534 -0.949057
v 0.129037 -0.163818 -0.978015
v 0.063672 -0.080834 -0.994692
v 0.080834 -0.063672 0.994692
v 0.163818 -0.129037 0.978015
v 0.247534 -0.194980 0.949057
v 0.330345 -0.260210 0.907283
v 0.410471 -0.323323 0.852629
v 0.486092 -0.382889 0.785564
v 0.555478 -0.437544 0.707107
v 0.617111 -0.486092 0.618780
v 0.669794 -0.527590 0.522517
v 0.712729 -0.561409 0.420520
v 0.745545 -0.587258 0.315104
v 0.768293 -0.605177 0.208535
v 0.781394 -0.615496 0.102900
v 0.785564 -0.618780 -0.000000
v 0.781394 -0.615496 -0.102900
v 0.768293 -0.605176 -0.208535
v 0.745545 -0.587258 -0.315104
v 0.712729 -0.561409 -0.420520
v 0.669794 -0.527590 -0.522517
v 0.617111 -0.486092 -0.618780
v 0.555478 -0.437544 -0.707107
v 0.486092 -0.382889 -0.785564
v 0.410471 -0.323323 -0.852629
v 0.330345 -0.260210 -0.907283
v 0.247534 -0.194980 -0.949057
v 0.163818 -0.129037 -0.978015
v 0.080834 -0.063672 -0.994692
v 0.093359 -0.043271 0.994692
v 0.189200 -0.087693 0.978015
v 0.285888 -0.132507 0.949057
v 0.381531 -0.176837 0.907283
v 0.474071 -0.219729 0.852629
v 0.561409 -0.260210 0.785564
v 0.641546 -0.297352 0.707107
v 0.712729 -0.330345 0.618780
v 0.773576 -0.358547 0.522517
v 0.823163 -0.381531 0.420520
v 0.861064 -0.399098 0.315104
v 0.887336 -0.411275 0.208535
v 0.902467 -0.418288 0.102900
v 0.907283 -0.420520 -0.000000
v 0.902467 -0.418288 -0.102900
v 0.887336 -0.411275 -0.208535
v 0.861064 -0.399097 -0.315104
v 0.823163 -0.381531 -0.420520
v 0.773576 -0.358547 -0.522517
v 0.712729 -0.330345 -0.618780
v 0.641546 -0.297352 -0.707107
v 0.561409 -0.260210 -0.785564
v 0.474071 -0.219729 -0.852629
v 0.381531 -0.176837 -0.907283
v 0.285888 -0.132507 -0.949057
v 0.189200 -0.087693 -0.978015
v 0.093359 -0.043271 -0.994692
v 0.100638 -0.021458 0.994692
v 0.203951 -0.043487 0.978015
v 0.308176 -0.065710 0.949057
v 0.411275 -0.087693 0.907283
v 0.511030 -0.108963 0.852629
v 0.605177 -0.129037 0.785564
v 0.691561 -0.147457 0.707107
v 0.768293 -0.163818 0.618780
v 0.833884 -0.177803 0.522517
v 0.887336 -0.189200 0.420520
v 0.928192 -0.197912 0.315104
v 0.956513 -0.203950 0.208535
v 0.972823 -0.207428 0.102900
v 0.978015 -0.208535 -0.000000
v 0.972823 -0.207428 -0.102900
v 0.956513 -0.203950 -0.208535
v 0.928192 -0.197912 -0.315104
v 0.887336 -0.189200 -0.420520
v 0.833884 -0.177803 -0.522517
v 0.768293 -0.163818 -0.618780
v 0.691561 -0.147457 -0.707107
v 0.605177 -0.129037 -0.785564
v 0.511029 -0.108963 -0.852629
v 0.411275 -0.087693 -0.907283
v 0.308176 -0.065710 -0.949057
v 0.203950 -0.043487 -0.978015
v 0.100638 -0.021458 -0.994692
s 0
f 2 4 5 3
f 4 6 7 5
f 6 8 9 7
f 8 10 11 9
f 10 12 13 11
f 12 14 15 13
f 14 16 17 15
f 16 18 19 17
f 18 20 21 19
f 20 22 23 21
f 22 24 25 23
f 24 26 27 25
f 26 28 29 27
f 28 30 31 29
f 30 32 33 31
f 32 34 35 33
f 34 36 37 35
f 36 38 39 37
f 38 40 41 39
f 40 42 43 41
f 42 44 45 43
f 44 46 47 45
f 46 48 49 47
f 48 50 51 49
f 50 52 53 51
f 52 54 55 53
f 3 5 58 57
f 5 7 59 58
f 7 9 60 59
f 9 11 61 60
f 11 13 62 61
f 13 15 63 62
f 15 17 64 63
f 17 19 65 64
f 19 21 66 65
f 21 23 67 66
f 23 25 68 67
f 25 27 69 68
f 27 29 70 69
f 29 31 71 70
f 31 33 72 71
f 33 35 73 72
f 35 37 74 73
f 37 39 75 74
f 39 41 76 75
f 41 43 77 76
f 43 45 78 77
f 45 47 79 78
f 47 49 80 79
f 49 51 81 80
f 51 53 82 81
f 53 55 83 82
f 57 58 85 84
f 58 59 86 85
f 59 60 87 86
f 60 61 88 87
f 61 62 89 88
f 62 63 90 89
f 63 64 91 90
f 64 65 92 91
f 65 66 93 92
f 66 67 94 93
f 67 68 95 94
f 68 69 96 95
f 69 70 97 96
f 70 71 98 97
f 71 72 99 98
f 72 73 100 99
f 73 74 101 100
f 74 75 102 101
f 75 76 103 102
f 76 77 104 103
f 77 78 105 104
f 78 79 106 105
f 79 80 107 106
f 80 81 108 107
f 81 82 109 108
f 82 83 110 109
f 84 85 112 111
f 85 86 113 112
f 86 87 114 113
f 87 88 115 114
f 88 89 116 115
f 89 90 117 116
f 90 91 118 117
f 91 92 119 118
f 92 93 120 119
f 93 94 121 120
f 94 95 122 121
f 95 96 123 122
f 96 97 124 123
f 97 98 125 124
f 98 99 126 125
f 99 100 127 126
f 100 101 128 127
f 101 102 129 128
f 102 103 130 129
f 103 104 131 130
f 104 105 132 131
f 105 106 133 132
f 106 107 134 133
f 107 108 135 134
f 108 109 136 135
f 109 110 137 136
f 111 112 139 138
f 112 113 140 139
f 113 114 141 140
f 114 115 142 141
f 115 116 143 142
f 116 117 144 143
f 117 118 145 144
f 118 119 146 145
f 119 120 147 146
f 120 121 148 147
f 121 122 149 148
f 122 123 150 149
f 123 124 151 150
f 124 125 152 151
f 125 126 153 152
f 126 127 154 153
f 127 128 155 154
f 128 129 156 155
f 129 130 157 156
f 130 131 158 157
f 131 132 159 158
f 132 133 160 159
f 133 134 161 160
f 134 135 162 161
f 135 136 163 162
f 136 137 164 163
f 138 139 166 165
f 139 140 167 166
f 140 141 168 167
f 141 142 169 168
f 142 143 170 169
f 143 144 171 170
f 144 145 172 171
f 145 146 173 172
f 146 147 174 173
f 147 148 175 174
f 148 149 176 175
f 149 150 177 176
f 150 151 178 177
f 151 152 179 178
f 152 153 180 179
f 153 154 181 180
f 154 155 182 181
f 155 156 183 182
f 156 157 184 183
f 157 158 185 184
f 158 159 186 185
f 159 160 187 186
f 160 161 188 187
f 161 162 189 188
f 162 163 190 189
f 163 164 191 190
f 165 166 193 192
f 166 167 194 193
f 167 168 195 194
f 168 169 196 195
f 169 170 197 196
f 170 171 198 197
f 171 172 199 198
f 172 173 200 199
f 173 174 201 200
f 174 175 202 201
f 175 176 203 202
f 176 177 204 203
f 177 178 205 204
f 178 179 206 205
f 179 180 207 206
f 180 181 208 207
f 181 182 209 208
f 182 183 210 209
f 183 184 211 210
f 184 185 212 211
f 185 186 213 212
f 186 187 214 213
f 187 188 215 214
f 188 189 216 215
f 189 190 217 216
f 190 191 218 217
f 192 193 220 219
f 193 194 221 220
f 194 195 222 221
f 195 196 223 222
f 196 197 224 223
f 197 198 225 224
f 198 199 226 225
f 199 200 227 226
f 200 201 228 227
f 201 202 229 228
f 202 203 230 229
f 203 204 231 230
f 204 205 232 231
f 205 206 233 232
f 206 207 234 233
f 207 208 235 234
f 208 209 236 235
f 209 210 237 236
f 210 211 238 237
f 211 212 239 238
f 212 213 240 239
f 213 214 241 240
f 214 215 242 241
f 215 216 243 242
f 216 217 244 243
f 217 218 245 244
f 219 220 247 246
f 220 221 248 247
f 221 222 249 248
f 222 223 250 249
f 223 224 251 250
f 224 225 252 251
f 225 226 253 252
f 226 227 254 253
f 227 228 255 254
f 228 229 256 255
f 229 230 257 256
f 230 231 258 257
f 231 232 259 258
f 232 233 260 259
f 233 234 261 260
f 234 235 262 261
f 235 236 263 262
f 236 237 264 263
f 237 238 265 264
f 238 239 266 265
f 239 240 267 266
f 240 241 268 267
f 241 242 269 268
f 242 243 270 269
f 243 244 271 270
f 244 245 272 271
f 246 247 274 273
f 247 248 275 274
f 248 249 276 275
f 249 250 277 276
f 250 251 278 277
f 251 252 279 278
f 252 253 280 279
f 253 254 281 280
f 254 255 282 281
f 255 256 283 282
f 256 257 284 283
f 257 258 285 284
f 258 259 286 285
f 259 260 287 286
f 260 261 288 287
f 261 262 289 288
f 262 263 290 289
f 263 264 291 290
f 264 265 292 291
f 265 266 293 292
f 266 267 294 293
f 267 268 295 294
f 268 269 296 295
f 269 270 297 296
f 270 271 298 297
f 271 272 299 298
f 273 274 301 300
f 274 275 302 301
f 275 276 303 302
f 276 277 304 303
f 277 278 305 304
f 278 279 306 305
f 279 280 307 306
f 280 281 308 307
f 281 282 309 308
f 282 283 310 309
f 283 284 311 310
f 284 285 312 311
f 285 286 313 312
f 286 287 314 313
f 287 288 315 314
f 288 289 316 315
f 289 290 317 316
f 290 291 318 317
f 291 292 319 318
f 292 293 320 319
f 293 294 321 320
f 294 295 322 321
f 295 296 323 322
f 296 297 324 323
f 297 298 325 324
f 298 299 326 325
f 300 301 328 327
f 301 302 329 328
f 302 303 330 329
f 303 304 331 330
f 304 305 332 331
f 305 306 333 332
f 306 307 334 333
f 307 308 335 334
f 308 309 336 335
f 309 310 337 336
f 310 311 338 337
f 311 312 339 338
f 312 313 340 339
f 313 314 341 340
f 314 315 342 341
f 315 316 343 342
f 316 317 344 343
f 317 318 345 344
f 318 319 346 345
f 319 320 347 346
f 320 321 348 347
f 321 322 349 348
f 322 323 350 349
f 323 324 351 350
f 324 325 352 351
f 325 326 353 352
f 327 328 355 354
f 328 329 356 355
f 329 330 357 356
f 330 331 358 357
f 331 332 359 358
f 332 333 360 359
f 333 334 361 360
f 334 335 362 361
f 335 336 363 362
f 336 337 364 363
f 337 338 365 364
f 338 339 366 365
f 339 340 367 366
f 340 341 368 367
f 341 342 369 368
f 342 343 370 369
f 343 344 371 370
f 344 345 372 371
f 345 346 373 372
f 346 347 374 373
f 347 348 375 374
f 348 349 376 375
f 349 350 377 376
f 350 351 378 377
f 351 352 379 378
f 352 353 380 379
f 354 355 382 381
f 355 356 383 382
f 356 357 384 383
f 357 358 385 384
f 358 359 386 385
f 359 360 387 386
f 360 361 388 387
f 361 362 389 388
f 362 363 390 389
f 363 364 391 390
f 364 365 392 391
f 365 366 393 392
f 366 367 394 393
f 367 368 395 394
f 368 369 396 395
f 369 370 397 396
f 370 371 398 397
f 371 372 399 398
f 372 373 400 399
f 373 374 401 400
f 374 375 402 401
f 375 376 403 402
f 376 377 404 403
f 377 378 405 404
f 378 379 406 405
f 379 380 407 406
f 381 382 409 408
f 382 383 410 409
f 383 384 411 410
f 384 385 412 411
f 385 386 413 412
f 386 387 414 413
f 387 388 415 414
f 388 389 416 415
f 389 390 417 416
f 390 391 418 417
f 391 392 419 418
f 392 393 420 419
f 393 394 421 420
f 394 395 422 421
f 395 396 423 422
f 396 397 424 423
f 397 398 425 424
f 398 399 426 425
f 399 400 427 426
f 400 401 428 427
f 401 402 429 428
f 402 403 430 429
f 403 404 431 430
f 404 405 432 431
f 405 406 433 432
f 406 407 434 433
f 408 409 436 435
f 409 410 437 436
f 410 411 438 437
f 411 412 439 438
f 412 413 440 439
f 413 414 441 440
f 414 415 442 441
f 415 416 443 442
f 416 417 444 443
f 417 418 445 444
f 418 419 446 445
f 419 420 447 446
f 420 421 448 447
f 421 422 449 448
f 422 423 450 449
f 423 424 451 450
f 424 425 452 451
f 425 426 453 452
f 426 427 454 453
f 427 428 455 454
f 428 429 456 455
f 429 430 457 456
f 430 431 458 457
f 431 432 459 458
f 432 433 460 459
f 433 434 461 460
f 435 436 463 462
f 436 437 464 463
f 437 438 465 464
f 438 439 466 465
f 439 440 467 466
f 440 441 468 467
f 441 442 469 468
f 442 443 470 469
f 443 444 471 470
f 444 445 472 471
f 445 446 473 472
f 446 447 474 473
f 447 448 475 474
f 448 449 476 475
f 449 450 477 476
f 450 451 478 477
f 451 452 479 478
f 452 453 480 479
f 453 454 481 480
f 454 455 482 481
f 455 456 483 482
f 456 457 484 483
f 457 458 485 484
f 458 459 486 485
f 459 460 487 486
f 460 461 488 487
f 462 463 490 489
f 463 464 491 490
f 464 465 492 491
f 465 466 493 492
f 466 467 494 493
f 467 468 495 494
f 468 469 496 495
f 469 470 497 496
f 470 471 498 497
f 471 472 499 498
f 472 473 500 499
f 473 474 501 500
f 474 475 502 501
f 475 476 503 502
f 476 477 504 503
f 477 478 505 504
f 478 479 506 505
f 479 480 507 506
f 480 481 508 507
f 481 482 509 508
f 482 483 510 509
f 483 484 511 510
f 484 485 512 511
f 485 486 513 512
f 486 487 514 513
f 487 488 515 514
f 489 490 517 516
f 490 491 518 517
f 491 492 519 518
f 492 493 520 519
f 493 494 521 520
f 494 495 522 521
f 495 496 523 522
f 496 497 524 523
f 497 498 525 524
f 498 499 526 525
f 499 500 527 526
f 500 501 528 527
f 501 502 529 528
f 502 503 530 529
f 503 504 531 530
f 504 505 532 531
f 505 506 533 532
f 506 507 534 533
f 507 508 535 534
f 508 509 536 535
f 509 510 537 536
f 510 511 538 537
f 511 512 539 538
f 512 513 540 539
f 513 514 541 540
f 514 515 542 541
f 516 517 544 543
f 517 518 545 544
f 518 519 546 545
f 519 520 547 546
f 520 521 548 547
f 521 522 549 548
f 522 523 550 549
f 523 524 551 550
f 524 525 552 551
f 525 526 553 552
f 526 527 554 553
f 527 528 555 554
f 528 529 556 555
f 529 530 557 556
f 530 531 558 557
f 531 532 559 558
f 532 533 560 559
f 533 534 561 560
f 534 535 562 561
f 535 536 563 562
f 536 537 564 563
f 537 538 565 564
f 538 539 566 565
f 539 540 567 566
f 540 541 568 567
f 541 542 569 568
f 543 544 571 570
f 544 545 572 571
f 545 546 573 572
f 546 547 574 573
f 547 548 575 574
f 548 549 576 575
f 549 550 577 576
f 550 551 578 577
f 551 552 579 578
f 552 553 580 579
f 553 554 581 580
f 554 555 582 581
f 555 556 583 582
f 556 557 584 583
f 557 558 585 584
f 558 559 586 585
f 559 560 587 586
f 560 561 588 587
f 561 562 589 588
f 562 563 590 589
f 563 564 591 590
f 564 565 592 591
f 565 566 593 592
f 566 567 594 593
f 567 568 595 594
f 568 569 596 595
f 570 571 598 597
f 571 572 599 598
f 572 573 600 599
f 573 574 601 600
f 574 575 602 601
f 575 576 603 602
f 576 577 604 603
f 577 578 605 604
f 578 579 606 605
f 579 580 607 606
f 580 581 608 607
f 581 582 609 608
f 582 583 610 609
f 583 584 611 610
f 584 585 612 611
f 585 586 613 612
f 586 587 614 613
f 587 588 615 614
f 588 589 616 615
f 589 590 617 616
f 590 591 618 617
f 591 592 619 618
f 592 593 620 619
f 593 594 621 620
f 594 595 622 621
f 595 596 623 622
f 597 598 625 624
f 598 599 626 625
f 599 600 627 626
f 600 601 628 627
f 601 602 629 628
f 602 603 630 629
f 603 604 631 630
f 604 605 632 631
f 605 606 633 632
f 606 607 634 633
f 607 608 635 634
f 608 609 636 635
f 609 610 637 636
f 610 611 638 637
f 611 612 639 638
f 612 613 640 639
f 613 614 641 640
f 614 615 642 641
f 615 616 643 642
f 616 617 644 643
f 617 618 645 644
f 618 619 646 645
f 619 620 647 646
f 620 621 648 647
f 621 622 649 648
f 622 623 650 649
f 624 625 652 651
f 625 626 653 652
f 626 627 654 653
f 627 628 655 654
f 628 629 656 655
f 629 630 657 656
f 630 631 658 657
f 631 632 659 658
f 632 633 660 659
f 633 634 661 660
f 634 635 662 661
f 635 636 663 662
f 636 637 664 663
f 637 638 665 664
f 638 639 666 665
f 639 640 667 666
f 640 641 668 667
f 641 642 669 668
f 642 643 670 669
f 643 644 671 670
f 644 645 672 671
f 645 646 673 672
f 646 647 674 673
f 647 648 675 674
f 648 649 676 675
f 649 650 677 676
f 651 652 679 678
f 652 653 680 679
f 653 654 681 680
f 654 655 682 681
f 655 656 683 682
f 656 657 684 683
f 657 658 685 684
f 658 659 686 685
f 659 660 687 686
f 660 661 688 687
f 661 662 689 688
f 662 663 690 689
f 663 664 691 690
f 664 665 692 691
f 665 666 693 692
f 666 667 694 693
f 667 668 695 694
f 668 669 696 695
f 669 670 697 696
f 670 671 698 697
f 671 672 699 698
f 672 673 700 699
f 673 674 701 700
f 674 675 702 701
f 675 676 703 702
f 676 677 704 703
f 678 679 706 705
f 679 680 707 706
f 680 681 708 707
f 681 682 709 708
f 682 683 710 709
f 683 684 711 710
f 684 685 712 711
f 685 686 713 712
f 686 687 714 713
f 687 688 715 714
f 688 689 716 715
f 689 690 717 716
f 690 691 718 717
f 691 692 719 718
f 692 693 720 719
f 693 694 721 720
f 694 695 722 721
f 695 696 723 722
f 696 697 724 723
f 697 698 725 724
f 698 699 726 725
f 699 700 727 726
f 700 701 728 727
f 701 702 729 728
f 702 703 730 729
f 703 704 731 730
f 705 706 733 732
f 706 707 734 733
f 707 708 735 734
f 708 709 736 735
f 709 710 737 736
f 710 711 738 737
f 711 712 739 738
f 712 713 740 739
f 713 714 741 740
f 714 715 742 741
f 715 716 743 742
f 716 717 744 743
f 717 718 745 744
f 718 719 746 745
f 719 720 747 746
f 720 721 748 747
f 721 722 749 748
f 722 723 750 749
f 723 724 751 750
f 724 725 752 751
f 725 726 753 752
f 726 727 754 753
f 727 728 755 754
f 728 729 756 755
f 729 730 757 756
f 730 731 758 757
f 1 2 3
f 54 56 55
f 1 3 57
f 55 56 83
f 1 57 84
f 83 56 110
f 1 84 111
f 110 56 137
f 1 111 138
f 137 56 164
f 1 138 165
f 164 56 191
f 1 165 192
f 191 56 218
f 1 192 219
f 218 56 245
f 1 219 246
f 245 56 272
f 1 246 273
f 272 56 299
f 1 273 300
f 299 56 326
f 1 300 327
f 326 56 353
f 1 327 354
f 353 56 380
f 1 354 381
f 380 56 407
f 1 381 408
f 407 56 434
f 1 408 435
f 434 56 461
f 1 435 462
f 461 56 488
f 1 462 489
f 488 56 515
f 1 489 516
f 515 56 542
f 1 516 543
f 542 56 569
f 1 543 570
f 569 56 596
f 1 570 597
f 596 56 623
f 1 597 624
f 623 56 650
f 1 624 651
f 650 56 677
f 1 651 678
f 677 56 704
f 1 678 705
f 704 56 731
f 1 705 732
f 731 56 758
f 1 732 2
f 732 733 4 2
f 733 734 6 4
f 734 735 8 6
f 735 736 10 8
f 736 737 12 10
f 737 738 14 12
f 738 739 16 14
f 739 740 18 16
f 740 741 20 18
f 741 742 22 20
f 742 743 24 22
f 743 744 26 24
f 744 745 28 26
f 745 746 30 28
f 746 747 32 30
f 747 748 34 32
f 748 749 36 34
f 749 750 38 36
f 750 751 40 38
f 751 752 42 40
f 752 753 44 42
f 753 754 46 44
f 754 755 48 46
f 755 756 50 48
f 756 757 52 50
f 757 758 54 52
f 758 56 54
